<mxfile version="13.4.2" type="github" etag="8TEcY-RlEgqNWZ2L4ZvY" agent="5.0 (Windows NT 10.0; Win64; x64) AppleWebKit/537.36 (KHTML, like Gecko) Chrome/64.0.3282.140 Safari/537.36 Edge/18.17763" modified="2020-07-11T02:13:40.536Z" host="app.diagrams.net">
  <diagram id="wP9Wt2C_sTmRDWCd7HxM" name="Page-1">
    <mxGraphModel grid="1" dx="1736" dy="960" gridSize="10" guides="1" tooltips="1" connect="1" arrows="1" fold="1" page="1" pageScale="1" pageWidth="1654" pageHeight="1169" math="0" shadow="0">
      <root>
        <mxCell id="0" />
        <mxCell id="1" parent="0" />
        <mxCell id="Z4mGhJQoA359sYGt_ZBV-1" value="" parent="1" vertex="1" style="rounded=0;whiteSpace=wrap;html=1;dashed=1;">
          <mxGeometry as="geometry" height="860" width="1250" x="220" y="154" />
        </mxCell>
        <mxCell id="Z4mGhJQoA359sYGt_ZBV-2" value="" parent="1" vertex="1" style="rounded=0;whiteSpace=wrap;html=1;">
          <mxGeometry as="geometry" height="65" width="900" x="220" y="510" />
        </mxCell>
        <mxCell id="Z4mGhJQoA359sYGt_ZBV-12" value="" parent="1" vertex="1" style="rounded=0;whiteSpace=wrap;html=1;">
          <mxGeometry as="geometry" height="70" width="70" x="1120" y="505" />
        </mxCell>
        <mxCell id="Z4mGhJQoA359sYGt_ZBV-13" value="" parent="1" vertex="1" style="rounded=0;whiteSpace=wrap;html=1;">
          <mxGeometry as="geometry" height="70" width="70" x="1190" y="505" />
        </mxCell>
        <mxCell id="Z4mGhJQoA359sYGt_ZBV-14" value="" parent="1" vertex="1" style="rounded=0;whiteSpace=wrap;html=1;">
          <mxGeometry as="geometry" height="70" width="70" x="1260" y="505" />
        </mxCell>
        <mxCell id="Z4mGhJQoA359sYGt_ZBV-18" value="" parent="1" vertex="1" style="rounded=0;whiteSpace=wrap;html=1;">
          <mxGeometry as="geometry" height="60" width="60" x="1320" y="575" />
        </mxCell>
        <mxCell id="Z4mGhJQoA359sYGt_ZBV-19" value="" parent="1" vertex="1" style="rounded=0;whiteSpace=wrap;html=1;">
          <mxGeometry as="geometry" height="60" width="60" x="1320" y="635" />
        </mxCell>
      </root>
    </mxGraphModel>
  </diagram>
</mxfile>
